<svg width="289" height="288" viewBox="0 0 289 288" fill="none" xmlns="http://www.w3.org/2000/svg">
<path d="M52.1799 55.5494L49.5349 58.5704L44.3097 53.9936L41.8981 56.7423L47.1233 61.3192L44.4783 64.3402L31.9404 53.3582L34.5854 50.3372L39.3179 54.4863L41.7295 51.7375L36.9971 47.5885L39.6421 44.5675L52.1799 55.5494Z" fill="#DCD6F7"/>
<path d="M58.3904 49.663L55.4861 52.3988L46.4231 42.7653L44.1671 44.8916L41.8073 42.3893L49.2107 35.4267L51.5705 37.9291L49.3274 40.0425L58.3904 49.663Z" fill="#DCD6F7"/>
<path d="M66.8181 42.6226L57.7421 35.3359L57.6644 35.3878C57.9885 35.7508 58.2997 36.1139 58.5979 36.4769C58.8961 36.8399 59.1813 37.19 59.4536 37.5271C59.7259 37.8642 59.9722 38.1884 60.2056 38.4995L64.5362 44.2952L61.5541 46.5123L51.5964 33.1577L55.9918 29.8774L64.1861 36.425L64.238 36.3861L60.3094 26.6489L64.6788 23.3945L74.6364 36.7492L71.5636 39.0441L67.1941 33.1836C66.9348 32.8465 66.6885 32.4964 66.4421 32.1464C66.1958 31.7963 65.9494 31.4333 65.7031 31.0572C65.4567 30.6812 65.2104 30.3052 64.9511 29.9163L64.8733 29.9681L69.2427 40.7556L66.8181 42.6226Z" fill="#DCD6F7"/>
<path d="M76.7887 35.6601L68.387 21.2811L71.8488 19.2585L78.5261 30.6812L82.4158 28.4123L84.1532 31.3684L76.7887 35.6601Z" fill="#DCD6F7"/>
<path d="M90.5323 23.3038L89.158 20.0235L94.9147 17.6118L96.2891 20.8922L90.5323 23.3038Z" fill="#FED766"/>
<path d="M110.123 7.10966C109.747 7.21338 109.423 7.40787 109.177 7.71904C108.931 8.03022 108.762 8.41919 108.671 8.91189C108.581 9.40458 108.568 9.97507 108.619 10.6234C108.671 11.2716 108.801 11.9848 109.008 12.7757C109.294 13.8648 109.618 14.7464 110.007 15.4207C110.396 16.0949 110.824 16.5616 111.303 16.821C111.783 17.0803 112.315 17.1321 112.898 16.9765C113.43 16.8339 113.922 16.6005 114.376 16.2764C114.817 15.9523 115.258 15.5762 115.686 15.1613L116.593 18.6232C116.14 19.064 115.621 19.44 115.05 19.7382C114.48 20.0364 113.858 20.2828 113.17 20.4643C111.861 20.8014 110.668 20.7755 109.592 20.3735C108.529 19.9716 107.608 19.2196 106.83 18.1046C106.052 16.9895 105.443 15.5633 104.976 13.7999C104.652 12.5552 104.496 11.3883 104.509 10.2992C104.522 9.2101 104.704 8.22471 105.041 7.35601C105.378 6.4873 105.884 5.74826 106.532 5.13887C107.18 4.54245 107.997 4.11459 108.957 3.85527C109.683 3.66079 110.396 3.58299 111.122 3.58299C111.848 3.58299 112.587 3.69968 113.365 3.9201L113.145 7.36897C112.626 7.18745 112.12 7.07076 111.628 6.99297C111.122 6.95407 110.629 6.98 110.123 7.10966Z" fill="#DCD6F7"/>
<path d="M126.797 12.4256C126.966 13.424 126.901 14.3575 126.616 15.2132C126.331 16.0689 125.825 16.795 125.112 17.3785C124.399 17.9619 123.504 18.3379 122.428 18.5195C121.935 18.5973 121.455 18.6491 120.989 18.6621C120.522 18.6751 120.055 18.6491 119.575 18.5713C119.096 18.4935 118.616 18.3639 118.097 18.1824L117.436 14.2278C118.175 14.552 118.914 14.7724 119.653 14.902C120.392 15.0317 121.041 15.0447 121.624 14.9409C121.948 14.8891 122.22 14.7853 122.415 14.6427C122.609 14.5001 122.739 14.3315 122.817 14.1241C122.882 13.9296 122.908 13.7092 122.856 13.4628C122.804 13.2165 122.739 13.009 122.609 12.8146C122.48 12.6201 122.259 12.4256 121.922 12.2311C121.585 12.0366 121.079 11.8032 120.405 11.531C119.861 11.3105 119.355 11.0772 118.914 10.8308C118.473 10.5845 118.071 10.2992 117.734 9.98804C117.397 9.6639 117.112 9.27493 116.879 8.80817C116.645 8.3414 116.477 7.77091 116.36 7.10966C116.191 6.12427 116.243 5.24261 116.516 4.46467C116.788 3.68672 117.268 3.02548 117.955 2.50685C118.642 1.98822 119.537 1.62518 120.613 1.44366C121.326 1.32697 122.052 1.30104 122.791 1.37883C123.53 1.45663 124.282 1.63815 125.047 1.91043L124.541 5.51489C123.906 5.25557 123.323 5.08702 122.791 4.99626C122.259 4.9055 121.78 4.89253 121.339 4.97033C121.054 5.02219 120.833 5.09998 120.665 5.22964C120.496 5.3593 120.379 5.51489 120.327 5.68344C120.263 5.85199 120.25 6.04648 120.289 6.24096C120.34 6.53917 120.431 6.77256 120.574 6.96704C120.716 7.16153 120.963 7.34305 121.326 7.52457C121.689 7.70609 122.208 7.93947 122.908 8.21175C123.647 8.49699 124.295 8.8341 124.827 9.19714C125.358 9.56018 125.799 10.001 126.136 10.5196C126.447 11.0383 126.681 11.6736 126.797 12.4256Z" fill="#DCD6F7"/>
<path d="M137.714 11.4402C137.805 12.4515 137.663 13.3721 137.3 14.2148C136.937 15.0446 136.379 15.7189 135.614 16.2375C134.862 16.7561 133.941 17.0673 132.839 17.158C132.334 17.1969 131.854 17.2099 131.387 17.184C130.92 17.158 130.454 17.0932 129.987 16.9765C129.52 16.8598 129.04 16.6913 128.548 16.4709L128.211 12.4774C128.924 12.8534 129.637 13.1387 130.363 13.3332C131.089 13.5277 131.737 13.5925 132.321 13.5406C132.658 13.5147 132.917 13.4369 133.125 13.3072C133.332 13.1776 133.475 13.022 133.565 12.8275C133.656 12.633 133.682 12.4126 133.669 12.1792C133.643 11.9329 133.578 11.7125 133.475 11.518C133.371 11.3235 133.151 11.1031 132.826 10.8827C132.502 10.6622 132.023 10.377 131.374 10.0529C130.843 9.78058 130.376 9.5083 129.948 9.23602C129.52 8.95077 129.144 8.6396 128.833 8.28953C128.522 7.93945 128.262 7.52455 128.081 7.04482C127.899 6.56509 127.757 5.98163 127.705 5.32038C127.627 4.33499 127.744 3.45333 128.081 2.70132C128.418 1.94931 128.95 1.32696 129.676 0.873157C130.402 0.419359 131.322 0.121148 132.424 0.0303883C133.138 -0.0344401 133.864 0.00445695 134.59 0.147079C135.316 0.289702 136.055 0.523084 136.794 0.860192L136.016 4.38686C135.407 4.07568 134.836 3.85526 134.317 3.72561C133.799 3.59595 133.319 3.54409 132.878 3.58298C132.593 3.60892 132.36 3.67374 132.191 3.79044C132.023 3.90713 131.893 4.03678 131.815 4.20534C131.737 4.37389 131.711 4.55541 131.737 4.76286C131.763 5.06107 131.841 5.30742 131.958 5.5019C132.087 5.69639 132.308 5.90384 132.658 6.12426C132.995 6.33171 133.501 6.60399 134.175 6.94109C134.888 7.29117 135.497 7.66717 136.003 8.08207C136.509 8.49698 136.898 8.96374 137.196 9.5083C137.468 10.0399 137.65 10.6882 137.714 11.4402Z" fill="#DCD6F7"/>
<path d="M147.607 11.9588L147.776 8.40622L154.012 8.70443L153.844 12.257L147.607 11.9588Z" fill="#FED766"/>
<path d="M169.636 18.9344L165.72 18.2083L168.132 5.21668L165.085 4.64619L165.707 1.26215L175.704 3.11624L175.082 6.50028L172.061 5.94276L169.636 18.9344Z" fill="#DCD6F7"/>
<path d="M181.668 10.9605L185.324 5.69639L189.318 6.81144L182.446 15.5373L180.722 21.709L176.858 20.6199L178.556 14.5908L177.26 3.4274L181.292 4.55541L181.668 10.9605Z" fill="#DCD6F7"/>
<path d="M196.488 9.52125C198.122 10.1566 199.172 11.0512 199.652 12.2311C200.131 13.411 200.066 14.7853 199.457 16.3542C199.159 17.1191 198.783 17.7934 198.342 18.3768C197.888 18.9603 197.357 19.427 196.747 19.7641C196.138 20.1012 195.464 20.2828 194.712 20.3087C193.96 20.3346 193.156 20.179 192.274 19.8419L191.522 19.5437L189.525 24.7041L185.778 23.2519L191.794 7.71902L196.488 9.52125ZM194.945 12.5552L194.336 12.3218L192.767 16.3931L193.143 16.5357C193.48 16.6653 193.817 16.7042 194.128 16.6653C194.439 16.6135 194.738 16.4449 195.01 16.1726C195.282 15.8874 195.528 15.4855 195.736 14.9409C195.969 14.3445 196.021 13.8518 195.891 13.4499C195.749 13.0479 195.438 12.7497 194.945 12.5552Z" fill="#DCD6F7"/>
<path d="M204.28 31.3295L196.942 27.7251L204.293 12.7757L211.632 16.3801L210.141 19.4141L206.407 17.5859L205.097 20.2568L208.559 21.9554L207.068 24.9893L203.606 23.2908L202.063 26.4285L205.797 28.2567L204.28 31.3295Z" fill="#DCD6F7"/>
<path d="M216.235 32.4835C215.716 33.3522 215.068 34.0264 214.277 34.4932C213.499 34.9599 212.643 35.1803 211.723 35.1674C210.802 35.1544 209.881 34.8562 208.935 34.2987C208.507 34.0394 208.105 33.7671 207.742 33.4689C207.379 33.1707 207.042 32.8465 206.731 32.4835C206.42 32.1204 206.134 31.7055 205.849 31.2258L207.898 27.7769C208.248 28.503 208.663 29.1513 209.142 29.7218C209.622 30.2923 210.115 30.7331 210.607 31.0313C210.893 31.1999 211.152 31.3036 211.398 31.3166C211.632 31.3425 211.852 31.2906 212.034 31.1869C212.215 31.0832 212.371 30.9276 212.5 30.7072C212.63 30.4997 212.708 30.2793 212.734 30.0589C212.76 29.8385 212.708 29.5403 212.578 29.1643C212.449 28.7883 212.215 28.2956 211.878 27.6473C211.606 27.1287 211.385 26.623 211.191 26.1433C211.009 25.6635 210.893 25.1968 210.841 24.73C210.789 24.2632 210.828 23.7835 210.958 23.2778C211.087 22.7722 211.321 22.2276 211.658 21.6571C212.163 20.8014 212.786 20.1661 213.499 19.7512C214.212 19.3363 215.003 19.1418 215.872 19.1937C216.74 19.2455 217.648 19.5437 218.594 20.1142C219.217 20.4902 219.774 20.944 220.293 21.4756C220.811 22.0072 221.265 22.6425 221.68 23.3427L218.957 25.7673C218.633 25.1579 218.309 24.6522 217.959 24.2373C217.609 23.8224 217.259 23.4983 216.87 23.2778C216.624 23.1352 216.39 23.0445 216.196 23.0315C215.988 23.0185 215.807 23.0574 215.651 23.1482C215.496 23.239 215.366 23.3686 215.262 23.5501C215.107 23.8094 215.029 24.0428 215.016 24.2762C215.003 24.5096 215.068 24.8078 215.223 25.1838C215.379 25.5598 215.625 26.0655 215.975 26.7267C216.351 27.4269 216.624 28.0881 216.792 28.7234C216.961 29.3458 217.013 29.9681 216.922 30.5775C216.857 31.2128 216.624 31.8352 216.235 32.4835Z" fill="#DCD6F7"/>
<path d="M227.956 30.4608C227.631 30.2274 227.281 30.1108 226.879 30.1237C226.477 30.1367 226.076 30.2534 225.635 30.4997C225.194 30.7461 224.753 31.0961 224.286 31.5499C223.82 32.0037 223.353 32.5613 222.873 33.2225C222.212 34.1301 221.745 34.947 221.473 35.673C221.2 36.3991 221.11 37.0215 221.213 37.566C221.317 38.1106 221.615 38.5514 222.108 38.9015C222.562 39.2256 223.055 39.459 223.586 39.5887C224.118 39.7183 224.688 39.822 225.272 39.8869L223.171 42.7912C222.536 42.7134 221.927 42.5578 221.33 42.3115C220.734 42.0651 220.15 41.741 219.58 41.3261C218.478 40.5352 217.739 39.5887 217.376 38.5125C217 37.4364 217 36.2435 217.363 34.934C217.726 33.6244 218.439 32.2371 219.502 30.759C220.254 29.7218 221.058 28.8531 221.901 28.1659C222.756 27.4787 223.625 26.999 224.507 26.7008C225.388 26.4026 226.283 26.3248 227.165 26.4415C228.046 26.5582 228.889 26.9082 229.693 27.4917C230.289 27.9325 230.821 28.4252 231.275 28.9827C231.729 29.5403 232.118 30.1885 232.442 30.9146L229.641 32.9373C229.447 32.4186 229.226 31.9519 228.967 31.537C228.721 31.135 228.37 30.772 227.956 30.4608Z" fill="#DCD6F7"/>
<path d="M238.899 35.1804C239.884 36.0361 240.584 36.9048 240.999 37.7476C241.414 38.5903 241.544 39.4331 241.388 40.2629C241.232 41.0927 240.792 41.9225 240.066 42.7523C239.638 43.245 239.171 43.634 238.678 43.9322C238.185 44.2304 237.667 44.4379 237.109 44.5416C236.565 44.6583 235.981 44.6712 235.359 44.5934L233.271 52.4117L229.939 49.4945L232.04 43.0376L231.625 42.6745L227.515 47.3551L224.494 44.7101L235.476 32.1853L238.899 35.1804ZM236.681 37.6438L236.318 37.3327L233.673 40.3407L234.011 40.6389C234.464 41.0408 234.931 41.2094 235.398 41.1446C235.865 41.0797 236.344 40.7686 236.837 40.211C237.239 39.7572 237.421 39.3164 237.395 38.8885C237.369 38.4477 237.122 38.0328 236.681 37.6438Z" fill="#DCD6F7"/>
<path d="M233.881 53.2286L245.77 41.5594L248.584 44.4249L236.694 56.094L233.881 53.2286Z" fill="#DCD6F7"/>
<path d="M254.444 50.9596C255.572 52.295 256.065 53.5916 255.936 54.8493C255.793 56.107 255.08 57.2868 253.796 58.3889C253.174 58.9205 252.513 59.3354 251.838 59.6336C251.164 59.9318 250.477 60.0874 249.777 60.0874C249.077 60.0874 248.402 59.9189 247.741 59.5947C247.08 59.2576 246.445 58.739 245.835 58.0129L245.317 57.3906L241.103 60.9691L238.51 57.9092L251.216 47.1347L254.444 50.9596ZM251.631 52.8785L251.216 52.3858L247.884 55.2123L248.143 55.5105C248.377 55.7828 248.649 55.9773 248.947 56.094C249.245 56.1977 249.582 56.1977 249.958 56.081C250.334 55.9643 250.736 55.718 251.177 55.342C251.67 54.9271 251.942 54.5122 252.033 54.1102C252.111 53.6953 251.981 53.2934 251.631 52.8785Z" fill="#DCD6F7"/>
<path d="M249.647 72.1066L247.352 68.8522L258.153 61.2284L256.363 58.7001L259.177 56.7163L265.037 65.0144L262.224 66.9981L260.448 64.4828L249.647 72.1066Z" fill="#DCD6F7"/>
<path d="M260.007 80.3917L263.157 78.758L266.036 84.2943L262.885 85.928L260.007 80.3917Z" fill="#FED766"/>
<path d="M280.259 95.9894C280.687 97.2211 280.881 98.3102 280.817 99.2567C280.765 100.203 280.454 100.994 279.909 101.642C279.364 102.291 278.574 102.783 277.536 103.146C276.914 103.367 276.318 103.471 275.747 103.497C275.177 103.509 274.619 103.432 274.087 103.263C273.556 103.095 273.037 102.822 272.545 102.446L266.866 108.229L265.4 104.041L270.405 99.4642L270.224 98.9326L264.337 100.981L263.015 97.1952L278.768 91.6977L280.259 95.9894ZM277.108 97.0266L276.953 96.5728L273.18 97.8824L273.322 98.2973C273.517 98.8678 273.841 99.2438 274.282 99.4123C274.723 99.5809 275.293 99.5549 275.993 99.3086C276.564 99.1141 276.94 98.8159 277.121 98.4399C277.303 98.0769 277.303 97.5971 277.108 97.0266Z" fill="#DCD6F7"/>
<path d="M269.005 117.059L267.021 109.137L283.176 105.091L285.16 113.013L281.88 113.83L280.869 109.798L277.99 110.524L278.924 114.258L275.643 115.075L274.71 111.341L271.313 112.184L272.324 116.216L269.005 117.059Z" fill="#DCD6F7"/>
<path d="M270.665 126.913L273.776 125.784L273.206 122.076L269.9 121.934L269.238 117.642L286.34 119.237L287.144 124.462L271.313 131.165L270.665 126.913ZM277.057 124.631L280.557 123.412C280.946 123.269 281.348 123.139 281.737 123.01C282.126 122.88 282.502 122.751 282.878 122.647C283.254 122.543 283.578 122.439 283.89 122.349C283.578 122.362 283.241 122.362 282.865 122.362C282.489 122.362 282.1 122.362 281.685 122.336C281.27 122.323 280.856 122.31 280.441 122.297L276.681 122.154L277.057 124.631Z" fill="#DCD6F7"/>
<path d="M285.108 137.661C285.082 137.272 284.953 136.922 284.693 136.611C284.434 136.3 284.084 136.066 283.617 135.885C283.15 135.703 282.593 135.574 281.958 135.496C281.322 135.418 280.583 135.405 279.766 135.444C278.638 135.509 277.718 135.651 276.979 135.898C276.24 136.131 275.695 136.468 275.345 136.883C274.995 137.298 274.839 137.817 274.865 138.413C274.891 138.971 275.034 139.489 275.254 139.995C275.488 140.501 275.76 140.993 276.084 141.499L272.506 141.693C272.169 141.162 271.896 140.578 271.715 139.956C271.533 139.334 271.417 138.672 271.378 137.972C271.3 136.611 271.572 135.457 272.169 134.484C272.778 133.525 273.699 132.773 274.943 132.228C276.188 131.684 277.718 131.373 279.533 131.269C280.817 131.204 281.984 131.282 283.06 131.515C284.123 131.749 285.056 132.112 285.847 132.63C286.638 133.149 287.261 133.771 287.714 134.536C288.168 135.301 288.428 136.17 288.479 137.168C288.518 137.907 288.466 138.633 288.311 139.334C288.155 140.034 287.896 140.747 287.533 141.46L284.201 140.552C284.473 140.086 284.706 139.606 284.862 139.139C285.056 138.685 285.134 138.193 285.108 137.661Z" fill="#DCD6F7"/>
<path d="M271.624 150.043L271.754 146.063L284.966 146.478L285.069 143.379L288.505 143.483L288.181 153.648L284.745 153.544L284.849 150.471L271.624 150.043Z" fill="#DCD6F7"/>
<path d="M273.245 154.491C273.945 154.555 274.464 154.802 274.801 155.217C275.138 155.632 275.267 156.189 275.203 156.889C275.138 157.55 274.904 158.056 274.489 158.393C274.075 158.73 273.517 158.86 272.817 158.795C272.117 158.73 271.611 158.484 271.261 158.082C270.911 157.68 270.781 157.136 270.846 156.474C270.911 155.813 271.144 155.294 271.559 154.931C271.987 154.568 272.545 154.413 273.245 154.491Z" fill="#DCD6F7"/>
<path d="M265.621 159.184C265.673 158.834 265.738 158.51 265.828 158.186C265.919 157.862 266.023 157.563 266.152 157.265L269.485 157.758C269.381 157.939 269.29 158.134 269.225 158.341C269.148 158.549 269.096 158.782 269.057 159.029C268.992 159.43 269.031 159.768 269.173 160.027C269.316 160.286 269.588 160.494 270.003 160.662C270.418 160.831 270.989 160.96 271.741 161.077L287.131 163.372L286.547 167.314L271.365 165.058C269.705 164.811 268.434 164.422 267.553 163.891C266.671 163.359 266.088 162.698 265.815 161.92C265.53 161.129 265.465 160.221 265.621 159.184Z" fill="#DCD6F7"/>
<path d="M272.726 177.103C271.728 176.882 270.885 176.48 270.211 175.884C269.524 175.287 269.044 174.561 268.772 173.68C268.499 172.798 268.473 171.826 268.707 170.762C268.81 170.27 268.953 169.803 269.109 169.375C269.277 168.934 269.472 168.506 269.718 168.104C269.964 167.69 270.263 167.288 270.626 166.873L274.541 167.728C273.971 168.299 273.478 168.895 273.089 169.531C272.7 170.166 272.441 170.762 272.311 171.333C272.246 171.657 272.233 171.942 272.285 172.176C272.337 172.409 272.454 172.604 272.609 172.733C272.765 172.876 272.972 172.967 273.206 173.018C273.439 173.07 273.673 173.07 273.893 173.031C274.113 172.993 274.386 172.85 274.697 172.604C275.008 172.37 275.41 171.981 275.916 171.463C276.331 171.035 276.732 170.659 277.121 170.335C277.51 170.01 277.925 169.751 278.353 169.557C278.781 169.362 279.248 169.245 279.766 169.207C280.285 169.168 280.881 169.22 281.53 169.362C282.502 169.57 283.293 169.959 283.928 170.503C284.551 171.048 284.979 171.735 285.212 172.578C285.445 173.42 285.432 174.367 285.199 175.443C285.043 176.143 284.797 176.83 284.447 177.479C284.097 178.127 283.656 178.762 283.112 179.385L279.948 177.569C280.428 177.077 280.804 176.597 281.089 176.143C281.374 175.689 281.556 175.236 281.659 174.808C281.724 174.523 281.724 174.289 281.672 174.082C281.621 173.887 281.517 173.719 281.387 173.602C281.245 173.485 281.076 173.394 280.881 173.356C280.596 173.291 280.337 173.291 280.104 173.356C279.883 173.42 279.611 173.576 279.313 173.835C279.014 174.095 278.6 174.497 278.081 175.041C277.536 175.625 276.992 176.091 276.447 176.454C275.903 176.817 275.332 177.051 274.736 177.168C274.139 177.284 273.465 177.258 272.726 177.103Z" fill="#DCD6F7"/>
<path d="M269.29 186.412L272.635 187.631L270.483 193.491L267.151 192.273L269.29 186.412Z" fill="#FED766"/>
<path d="M259.229 210.126C258.334 209.647 257.634 209.037 257.128 208.272C256.623 207.52 256.363 206.677 256.324 205.757C256.299 204.836 256.532 203.89 257.051 202.93C257.284 202.489 257.543 202.075 257.816 201.699C258.088 201.323 258.399 200.96 258.749 200.635C259.099 200.311 259.501 199.987 259.955 199.689L263.495 201.569C262.794 201.958 262.159 202.412 261.614 202.917C261.07 203.423 260.655 203.929 260.383 204.447C260.227 204.746 260.149 205.018 260.136 205.251C260.123 205.498 260.188 205.705 260.305 205.874C260.422 206.042 260.59 206.198 260.798 206.314C261.018 206.431 261.238 206.496 261.459 206.509C261.692 206.522 261.978 206.457 262.341 206.314C262.704 206.172 263.196 205.912 263.819 205.549C264.324 205.251 264.817 205.005 265.284 204.797C265.751 204.59 266.217 204.447 266.671 204.369C267.125 204.292 267.618 204.305 268.136 204.408C268.655 204.512 269.199 204.72 269.796 205.031C270.677 205.498 271.339 206.081 271.793 206.768C272.246 207.455 272.467 208.233 272.467 209.102C272.467 209.971 272.207 210.891 271.689 211.864C271.352 212.499 270.924 213.082 270.418 213.627C269.9 214.159 269.303 214.651 268.629 215.105L266.075 212.512C266.671 212.162 267.151 211.799 267.553 211.436C267.955 211.073 268.253 210.697 268.46 210.308C268.59 210.048 268.668 209.828 268.668 209.621C268.668 209.413 268.616 209.232 268.525 209.089C268.434 208.946 268.279 208.817 268.097 208.713C267.838 208.57 267.592 208.506 267.358 208.493C267.125 208.493 266.827 208.57 266.464 208.752C266.101 208.92 265.595 209.206 264.96 209.582C264.272 209.997 263.624 210.295 263.015 210.502C262.405 210.71 261.783 210.775 261.174 210.736C260.538 210.684 259.903 210.489 259.229 210.126Z" fill="#DCD6F7"/>
<path d="M265.141 222.483C264.195 223.948 263.093 224.803 261.848 225.037C260.603 225.27 259.268 224.92 257.841 224C257.154 223.559 256.571 223.053 256.091 222.483C255.611 221.925 255.261 221.303 255.067 220.641C254.859 219.98 254.82 219.28 254.95 218.541C255.08 217.802 255.391 217.05 255.91 216.259L256.35 215.585L251.709 212.577L253.887 209.206L267.864 218.269L265.141 222.483ZM262.496 220.343L262.846 219.799L259.19 217.426L258.969 217.763C258.775 218.074 258.658 218.385 258.645 218.697C258.632 219.021 258.736 219.332 258.957 219.656C259.177 219.98 259.527 220.304 260.007 220.615C260.538 220.966 261.018 221.121 261.433 221.069C261.861 221.043 262.211 220.797 262.496 220.343Z" fill="#DCD6F7"/>
<path d="M257.517 233.127C256.7 234.152 255.884 234.891 255.054 235.345C254.224 235.798 253.394 235.967 252.564 235.863C251.735 235.746 250.879 235.345 250.023 234.657C249.518 234.255 249.103 233.815 248.778 233.335C248.454 232.855 248.234 232.349 248.091 231.805C247.949 231.26 247.91 230.677 247.962 230.067L240.04 228.356L242.801 224.881L249.349 226.658L249.699 226.217L244.824 222.34L247.313 219.202L260.357 229.562L257.517 233.127ZM254.95 231.027L255.248 230.651L252.111 228.162L251.838 228.512C251.462 228.991 251.32 229.458 251.41 229.925C251.501 230.392 251.838 230.845 252.422 231.312C252.889 231.688 253.342 231.844 253.757 231.805C254.172 231.753 254.574 231.494 254.95 231.027Z" fill="#DCD6F7"/>
<path d="M239.236 229.004L251.462 240.323L248.74 243.267L236.513 231.948L239.236 229.004Z" fill="#DCD6F7"/>
<path d="M225.401 242.476L228.902 239.286L239.262 243.993L239.326 243.928C238.899 243.526 238.51 243.15 238.134 242.787C237.758 242.424 237.433 242.087 237.135 241.775C236.837 241.464 236.578 241.192 236.357 240.946L232.143 236.33L234.879 233.84L246.108 246.145L242.633 249.309L232.468 244.771L232.403 244.835C232.805 245.224 233.168 245.587 233.518 245.937C233.868 246.288 234.179 246.599 234.464 246.897C234.75 247.195 235.009 247.467 235.242 247.714L239.391 252.265L236.63 254.78L225.401 242.476Z" fill="#DCD6F7"/>
<path d="M224.714 255.13L219.93 258.605L214.666 251.331C215.158 250.553 215.729 249.827 216.364 249.166C217 248.505 217.713 247.882 218.491 247.325C219.606 246.508 220.76 246.093 221.94 246.067C223.119 246.028 224.286 246.391 225.453 247.117C226.62 247.856 227.748 248.971 228.837 250.462C229.875 251.902 230.536 253.302 230.821 254.676C231.106 256.051 230.99 257.321 230.51 258.514C230.03 259.707 229.161 260.757 227.917 261.665C227.204 262.183 226.49 262.572 225.764 262.858C225.038 263.143 224.351 263.324 223.716 263.415L222.717 260.096C223.262 260.057 223.794 259.94 224.312 259.759C224.831 259.564 225.324 259.305 225.803 258.955C226.4 258.527 226.763 258.008 226.918 257.386C227.074 256.764 227.022 256.077 226.763 255.312C226.503 254.547 226.05 253.717 225.401 252.822C224.753 251.941 224.144 251.253 223.547 250.761C222.951 250.268 222.38 249.983 221.836 249.905C221.291 249.814 220.786 249.944 220.332 250.281C220.163 250.411 219.995 250.553 219.826 250.709C219.671 250.864 219.515 251.033 219.398 251.189L221.175 253.639L222.795 252.472L224.714 255.13Z" fill="#DCD6F7"/>
<path d="M216.662 268.718L212.332 271.026C210.646 271.934 209.233 272.297 208.105 272.141C206.977 271.986 206.07 271.272 205.408 270.028C205.11 269.483 204.929 268.939 204.864 268.394C204.799 267.849 204.825 267.357 204.954 266.903C205.084 266.449 205.305 266.06 205.629 265.749L205.577 265.645C204.993 265.762 204.475 265.749 203.995 265.619C203.515 265.49 203.074 265.243 202.673 264.88C202.271 264.517 201.908 264.025 201.583 263.415C201.117 262.534 200.896 261.665 200.935 260.809C200.974 259.953 201.259 259.175 201.791 258.436C202.322 257.71 203.087 257.075 204.086 256.543L208.844 254.002L216.662 268.718ZM208.611 262.145L206.835 258.812L205.888 259.318C205.395 259.577 205.11 259.914 205.019 260.316C204.929 260.718 205.032 261.211 205.33 261.769C205.512 262.119 205.732 262.378 205.966 262.559C206.199 262.741 206.471 262.845 206.77 262.858C207.068 262.871 207.379 262.793 207.703 262.611L208.611 262.145ZM210.076 264.88L209.272 265.308C208.831 265.542 208.559 265.853 208.455 266.242C208.351 266.631 208.442 267.072 208.702 267.564C208.935 268.018 209.246 268.29 209.596 268.381C209.959 268.472 210.374 268.394 210.867 268.135L211.606 267.746L210.076 264.88Z" fill="#DCD6F7"/>
<path d="M188.981 272.4C188.462 271.117 188.125 269.924 187.982 268.835C187.84 267.746 187.879 266.76 188.112 265.879C188.345 264.997 188.76 264.232 189.37 263.584C189.979 262.935 190.783 262.417 191.768 262.028C192.754 261.639 193.687 261.457 194.569 261.509C195.451 261.561 196.293 261.807 197.084 262.274C197.875 262.741 198.588 263.415 199.237 264.31C199.885 265.204 200.481 266.294 201 267.577C201.687 269.289 202.05 270.819 202.063 272.18C202.089 273.541 201.778 274.708 201.117 275.681C200.455 276.653 199.483 277.405 198.173 277.924C196.851 278.455 195.632 278.598 194.491 278.352C193.35 278.105 192.326 277.483 191.392 276.485C190.485 275.499 189.681 274.125 188.981 272.4ZM197.136 269.12C196.721 268.083 196.28 267.24 195.84 266.605C195.399 265.969 194.945 265.542 194.491 265.321C194.037 265.101 193.571 265.088 193.091 265.269C192.598 265.464 192.261 265.801 192.093 266.268C191.924 266.734 191.898 267.344 192.028 268.096C192.157 268.848 192.443 269.768 192.87 270.845C193.519 272.465 194.18 273.593 194.828 274.242C195.49 274.877 196.177 275.058 196.903 274.76C197.37 274.566 197.694 274.229 197.875 273.749C198.057 273.269 198.083 272.634 197.953 271.869C197.823 271.104 197.551 270.17 197.136 269.12Z" fill="#DCD6F7"/>
<path d="M174.239 276.614C173.863 275.279 173.668 274.06 173.655 272.958C173.642 271.856 173.798 270.883 174.122 270.028C174.459 269.172 174.965 268.459 175.639 267.888C176.313 267.318 177.169 266.89 178.193 266.605C179.218 266.32 180.164 266.255 181.046 266.41C181.927 266.566 182.731 266.903 183.457 267.461C184.183 268.018 184.819 268.77 185.363 269.729C185.908 270.689 186.375 271.843 186.738 273.178C187.23 274.955 187.412 276.524 187.282 277.872C187.153 279.22 186.712 280.348 185.947 281.243C185.182 282.138 184.132 282.773 182.77 283.149C181.396 283.525 180.164 283.525 179.062 283.162C177.96 282.786 177.013 282.06 176.197 280.958C175.393 279.856 174.744 278.404 174.239 276.614ZM182.718 274.267C182.42 273.178 182.083 272.297 181.72 271.622C181.357 270.948 180.955 270.469 180.527 270.196C180.099 269.924 179.632 269.859 179.153 269.989C178.634 270.131 178.271 270.417 178.051 270.858C177.83 271.298 177.74 271.908 177.778 272.673C177.817 273.438 177.999 274.384 178.31 275.499C178.777 277.185 179.295 278.378 179.879 279.091C180.462 279.804 181.124 280.05 181.876 279.843C182.368 279.713 182.731 279.415 182.952 278.948C183.185 278.481 183.276 277.872 183.237 277.081C183.185 276.303 183.017 275.37 182.718 274.267Z" fill="#DCD6F7"/>
<path d="M164.074 269.911L168.002 269.237L170.245 282.267L173.305 281.736L173.889 285.133L163.866 286.857L163.283 283.46L166.317 282.942L164.074 269.911Z" fill="#DCD6F7"/>
<path d="M152.171 275.707L152.301 279.259L146.064 279.48L145.935 275.927L152.171 275.707Z" fill="#FED766"/>
<path d="M128.976 287.285C127.238 287.103 125.981 286.507 125.203 285.509C124.425 284.51 124.126 283.162 124.308 281.476C124.386 280.66 124.58 279.908 124.853 279.22C125.125 278.533 125.527 277.95 126.019 277.47C126.525 276.99 127.121 276.64 127.835 276.42C128.548 276.199 129.365 276.135 130.311 276.238L131.115 276.316L131.685 270.819L135.679 271.234L133.954 287.804L128.976 287.285ZM129.676 283.953L130.324 284.018L130.778 279.674L130.376 279.635C130.013 279.596 129.689 279.648 129.39 279.778C129.092 279.908 128.859 280.141 128.664 280.491C128.47 280.828 128.353 281.295 128.288 281.865C128.224 282.501 128.301 282.993 128.535 283.343C128.768 283.694 129.144 283.888 129.676 283.953Z" fill="#DCD6F7"/>
<path d="M109.877 275.538C110.162 274.177 110.551 273.01 111.031 272.024C111.511 271.039 112.107 270.248 112.794 269.639C113.482 269.029 114.26 268.627 115.115 268.433C115.984 268.238 116.93 268.251 117.968 268.472C119.005 268.692 119.874 269.068 120.587 269.6C121.3 270.131 121.857 270.819 122.246 271.635C122.635 272.452 122.856 273.425 122.908 274.527C122.96 275.629 122.843 276.861 122.558 278.222C122.182 280.024 121.624 281.502 120.885 282.643C120.146 283.784 119.238 284.575 118.162 285.016C117.086 285.457 115.841 285.535 114.467 285.249C113.08 284.964 111.978 284.394 111.174 283.564C110.37 282.734 109.851 281.645 109.644 280.284C109.41 278.948 109.501 277.366 109.877 275.538ZM118.473 277.353C118.707 276.251 118.81 275.318 118.798 274.54C118.785 273.762 118.642 273.152 118.383 272.725C118.123 272.284 117.747 272.011 117.255 271.908C116.736 271.804 116.269 271.895 115.867 272.18C115.465 272.465 115.115 272.958 114.804 273.671C114.493 274.371 114.221 275.292 113.987 276.42C113.624 278.131 113.546 279.428 113.728 280.335C113.922 281.23 114.389 281.762 115.154 281.917C115.647 282.021 116.114 281.917 116.529 281.619C116.943 281.321 117.319 280.802 117.644 280.089C117.968 279.376 118.24 278.455 118.473 277.353Z" fill="#DCD6F7"/>
<path d="M99.7639 268.913C100.075 267.94 100.555 267.136 101.203 266.514C101.851 265.892 102.629 265.477 103.524 265.269C104.419 265.062 105.391 265.14 106.441 265.477C106.921 265.632 107.375 265.801 107.79 266.008C108.218 266.216 108.619 266.449 108.995 266.734C109.371 267.02 109.76 267.357 110.136 267.759L108.931 271.584C108.412 270.961 107.867 270.43 107.271 269.976C106.675 269.535 106.104 269.224 105.547 269.042C105.222 268.939 104.95 268.913 104.717 268.952C104.483 268.99 104.276 269.081 104.133 269.224C103.978 269.366 103.861 269.561 103.796 269.794C103.718 270.028 103.693 270.261 103.718 270.481C103.744 270.702 103.861 270.987 104.069 271.311C104.276 271.635 104.626 272.076 105.093 272.621C105.482 273.075 105.819 273.502 106.104 273.93C106.389 274.358 106.623 274.786 106.778 275.227C106.934 275.668 107.012 276.147 106.999 276.679C106.999 277.198 106.895 277.781 106.688 278.416C106.389 279.363 105.936 280.128 105.339 280.698C104.743 281.269 104.017 281.632 103.161 281.788C102.305 281.943 101.359 281.852 100.308 281.515C99.6213 281.295 98.96 280.984 98.3506 280.582C97.7413 280.18 97.1448 279.674 96.5744 279.091L98.6618 276.109C99.1156 276.627 99.5565 277.042 99.9843 277.366C100.412 277.69 100.84 277.924 101.268 278.053C101.54 278.144 101.787 278.17 101.981 278.131C102.188 278.092 102.357 278.015 102.487 277.885C102.616 277.755 102.72 277.6 102.772 277.405C102.863 277.12 102.889 276.861 102.85 276.64C102.811 276.407 102.668 276.135 102.435 275.81C102.201 275.486 101.838 275.045 101.346 274.475C100.814 273.878 100.399 273.295 100.088 272.725C99.7769 272.154 99.5954 271.558 99.5305 270.948C99.4527 270.313 99.5435 269.639 99.7639 268.913Z" fill="#DCD6F7"/>
<path d="M94.0849 261.185L97.7802 262.702L92.7624 274.929L95.6279 276.109L94.3183 279.298L84.9182 275.447L86.2277 272.258L89.0802 273.425L94.0849 261.185Z" fill="#DCD6F7"/>
<path d="M80.4191 265.451L75.181 262.689L79.3689 254.741C80.2895 254.845 81.1841 255.026 82.0658 255.299C82.9474 255.571 83.8161 255.947 84.6589 256.388C85.8777 257.036 86.7723 257.879 87.3169 258.916C87.8614 259.953 88.0689 261.159 87.9392 262.534C87.8096 263.908 87.3039 265.412 86.4352 267.046C85.6054 268.614 84.6459 269.833 83.5438 270.689C82.4418 271.545 81.2489 272.011 79.9653 272.115C78.6817 272.206 77.3592 271.895 75.9978 271.182C75.2199 270.78 74.5457 270.313 73.9752 269.781C73.4047 269.25 72.925 268.718 72.5619 268.187L75.0902 265.827C75.3625 266.294 75.6996 266.721 76.1015 267.11C76.5035 267.486 76.9573 267.824 77.4759 268.096C78.1242 268.433 78.7595 268.537 79.3819 268.407C80.0042 268.264 80.6006 267.914 81.1711 267.344C81.7416 266.773 82.2862 265.995 82.8048 265.023C83.3105 264.051 83.6605 263.195 83.8291 262.443C83.9976 261.691 84.0106 261.055 83.8421 260.524C83.6735 259.992 83.3364 259.603 82.8437 259.331C82.6492 259.227 82.4547 259.15 82.2343 259.072C82.0139 258.994 81.8194 258.942 81.612 258.89L80.2117 261.561L81.975 262.495L80.4191 265.451Z" fill="#DCD6F7"/>
<path d="M64.8344 264.245C63.7453 263.519 62.9414 262.767 62.4228 261.976C61.9041 261.185 61.6578 260.368 61.7096 259.538C61.7615 258.696 62.0856 257.814 62.695 256.906C63.0581 256.362 63.46 255.908 63.9138 255.558C64.3676 255.208 64.8473 254.923 65.3789 254.741C65.9105 254.56 66.481 254.469 67.1034 254.469L68.1406 246.443L71.8229 248.907L70.5911 255.584L71.0579 255.895L74.5197 250.709L77.8519 252.939L68.6074 266.799L64.8344 264.245ZM66.7144 261.509L67.1163 261.782L69.3335 258.449L68.9575 258.203C68.4518 257.866 67.9721 257.762 67.5183 257.892C67.0645 258.021 66.6366 258.397 66.2217 259.007C65.8846 259.5 65.7679 259.966 65.8457 260.381C65.9235 260.796 66.2217 261.185 66.7144 261.509Z" fill="#DCD6F7"/>
<path d="M61.0614 240.635L67.4275 245.756L56.9901 258.735L50.624 253.613L52.7504 250.981L55.9918 253.587L57.8588 251.266L54.8638 248.855L56.9901 246.223L59.9852 248.634L62.1764 245.912L58.935 243.305L61.0614 240.635Z" fill="#DCD6F7"/>
<path d="M49.6386 236.874C50.3387 236.135 51.1167 235.63 51.9854 235.345C52.8541 235.059 53.7228 235.033 54.6174 235.254C55.512 235.474 56.3548 235.954 57.1457 236.706C57.5088 237.056 57.8329 237.406 58.1311 237.769C58.4293 238.132 58.6757 238.521 58.9091 238.949C59.1295 239.364 59.324 239.844 59.4925 240.362L56.7308 243.28C56.5363 242.502 56.277 241.775 55.9399 241.114C55.6028 240.453 55.2138 239.921 54.786 239.519C54.5396 239.286 54.3062 239.143 54.0729 239.066C53.8395 239.001 53.632 238.988 53.4246 239.053C53.2171 239.118 53.0356 239.234 52.8671 239.416C52.6985 239.597 52.5818 239.792 52.504 239.999C52.4262 240.22 52.4133 240.518 52.4521 240.907C52.491 241.296 52.6077 241.84 52.8022 242.54C52.9578 243.111 53.0615 243.656 53.1393 244.161C53.2171 244.667 53.2301 245.147 53.1782 245.613C53.1264 246.08 52.9837 246.547 52.7504 247.014C52.517 247.48 52.1669 247.96 51.7131 248.44C51.0259 249.166 50.2869 249.646 49.5089 249.905C48.718 250.164 47.9142 250.164 47.0714 249.931C46.2286 249.698 45.4247 249.205 44.6209 248.44C44.1023 247.947 43.6485 247.377 43.2595 246.741C42.8835 246.106 42.5593 245.393 42.313 244.615L45.5025 242.839C45.6841 243.5 45.8915 244.07 46.1379 244.55C46.3842 245.03 46.6695 245.419 46.9936 245.73C47.2011 245.925 47.4085 246.054 47.603 246.106C47.7975 246.158 47.992 246.158 48.1605 246.106C48.3291 246.054 48.4847 245.95 48.6273 245.795C48.8347 245.574 48.9644 245.354 49.0292 245.134C49.094 244.913 49.094 244.602 49.0292 244.2C48.9644 243.811 48.8218 243.241 48.6273 242.528C48.4069 241.763 48.2902 241.049 48.2642 240.401C48.2383 239.753 48.3291 239.143 48.5365 238.56C48.744 237.99 49.107 237.419 49.6386 236.874Z" fill="#DCD6F7"/>
<path d="M37.4638 228.136C38.4103 227.319 39.3309 226.658 40.2255 226.178C41.1201 225.698 41.9888 225.387 42.8187 225.244C43.6485 225.102 44.4394 225.141 45.2043 225.348L46.7862 220.071L49.7683 223.494L48.3031 227.539C48.3161 227.552 48.3291 227.578 48.355 227.604C48.3809 227.63 48.3939 227.643 48.4069 227.669C49.0681 228.421 49.496 229.225 49.6905 230.068C49.8849 230.91 49.872 231.779 49.6386 232.661C49.4052 233.542 48.9773 234.437 48.355 235.319C47.7326 236.213 46.9417 237.082 45.9563 237.938C44.569 239.143 43.2336 239.986 41.9499 240.453C40.6793 240.92 39.4735 240.998 38.3325 240.699C37.2045 240.401 36.1673 239.714 35.2467 238.651C34.3132 237.575 33.7686 236.46 33.639 235.306C33.4963 234.152 33.7556 232.985 34.4039 231.779C35.0263 230.56 36.0506 229.354 37.4638 228.136ZM43.2206 234.761C44.0634 234.022 44.7246 233.348 45.1784 232.712C45.6322 232.09 45.8915 231.52 45.9563 231.014C46.0212 230.508 45.8785 230.055 45.5414 229.679C45.1914 229.277 44.7765 229.069 44.2708 229.056C43.7781 229.043 43.1947 229.225 42.5204 229.601C41.8462 229.977 41.0812 230.534 40.1996 231.299C38.89 232.44 38.0343 233.426 37.6324 234.255C37.2434 235.085 37.2953 235.798 37.8139 236.382C38.151 236.771 38.5789 236.965 39.0845 236.978C39.6032 236.991 40.1996 236.81 40.8868 236.434C41.5999 236.058 42.3649 235.5 43.2206 234.761Z" fill="#DCD6F7"/>
<path d="M42.6242 220.992L29.075 230.677L26.7412 227.41L37.5027 219.721L34.8836 216.065L37.6713 214.068L42.6242 220.992Z" fill="#DCD6F7"/>
<path d="M29.075 208.454L25.9373 210.113L23.0071 204.603L26.1448 202.93L29.075 208.454Z" fill="#FED766"/>
<path d="M23.7202 185.608L13.957 191.922L13.983 192.013C14.4368 191.819 14.8776 191.637 15.3184 191.469C15.7593 191.3 16.1742 191.132 16.5891 190.976C17.004 190.82 17.38 190.691 17.756 190.561L24.6278 188.279L25.7947 191.806L9.96362 197.057L8.23918 191.858L17.0429 186.14L17.0169 186.075L6.54068 186.736L4.82921 181.563L20.6473 176.325L21.8531 179.968L14.9165 182.263C14.5146 182.393 14.0997 182.522 13.6977 182.639C13.2828 182.756 12.8679 182.885 12.4271 183.002C11.9992 183.119 11.5584 183.235 11.1176 183.352L11.1435 183.443L22.7607 182.704L23.7202 185.608Z" fill="#DCD6F7"/>
<path d="M9.63947 163.372C11.0009 163.113 12.2326 163.009 13.3347 163.074C14.4368 163.139 15.3962 163.372 16.2131 163.774C17.0429 164.176 17.7041 164.733 18.2228 165.459C18.7414 166.186 19.0915 167.067 19.2989 168.104C19.4934 169.142 19.4934 170.088 19.273 170.957C19.0526 171.826 18.6506 172.591 18.0412 173.278C17.4318 173.965 16.628 174.535 15.6296 175.002C14.6313 175.469 13.4514 175.845 12.077 176.104C10.2618 176.454 8.69298 176.506 7.35752 176.273C6.02205 176.039 4.93293 175.508 4.10313 174.678C3.27333 173.848 2.72877 172.746 2.45649 171.359C2.18421 169.959 2.28793 168.727 2.74173 167.664C3.19553 166.6 4.01237 165.706 5.16632 164.993C6.32026 164.254 7.81131 163.722 9.63947 163.372ZM11.2991 171.994C12.4012 171.787 13.3088 171.514 14.0219 171.203C14.735 170.892 15.2406 170.529 15.5389 170.127C15.8371 169.725 15.9538 169.271 15.85 168.766C15.7463 168.247 15.487 167.858 15.0721 167.599C14.6442 167.34 14.0608 167.197 13.2828 167.184C12.5179 167.171 11.5584 167.275 10.4304 167.495C8.71891 167.819 7.47421 168.247 6.7222 168.766C5.97019 169.284 5.65901 169.933 5.8146 170.698C5.90536 171.203 6.17764 171.579 6.61847 171.852C7.0593 172.124 7.66869 172.266 8.4596 172.292C9.23754 172.305 10.184 172.215 11.2991 171.994Z" fill="#DCD6F7"/>
<path d="M16.6409 147.139L16.991 151.858L6.89075 157.097L6.90371 157.187C7.4742 157.097 8.01876 157.019 8.53739 156.954C9.05602 156.889 9.52278 156.837 9.95065 156.785C10.3785 156.747 10.7545 156.708 11.0916 156.682L17.3152 156.215L17.5874 159.91L0.978397 161.142L0.628323 156.461L10.4693 151.262L10.4563 151.171C9.91175 151.249 9.39312 151.314 8.90043 151.366C8.40773 151.418 7.9669 151.482 7.552 151.521C7.13709 151.573 6.77406 151.599 6.43695 151.625L0.291215 152.079L0.0189362 148.345L16.6409 147.139Z" fill="#DCD6F7"/>
<path d="M7.11116 138.763L7.33158 132.851L16.3038 133.188C16.615 134.057 16.8354 134.951 16.9651 135.859C17.0947 136.766 17.1466 137.713 17.1077 138.672C17.0558 140.06 16.6798 141.214 15.9797 142.16C15.2795 143.107 14.2812 143.82 12.9846 144.287C11.688 144.753 10.1192 144.961 8.26511 144.883C6.48881 144.818 4.97183 144.468 3.72712 143.846C2.48242 143.223 1.53592 142.355 0.887639 141.24C0.239355 140.125 -0.0458903 138.802 0.00597241 137.259C0.0319038 136.39 0.161561 135.574 0.394943 134.822C0.615359 134.07 0.900604 133.421 1.22475 132.864L4.4532 134.121C4.14202 134.575 3.90864 135.068 3.74009 135.587C3.57153 136.118 3.46781 136.663 3.45484 137.246C3.42891 137.972 3.61043 138.595 3.9994 139.087C4.38837 139.593 4.97183 139.969 5.7368 140.241C6.50178 140.514 7.43531 140.669 8.53739 140.708C9.62651 140.747 10.5471 140.682 11.2991 140.514C12.0511 140.345 12.6216 140.073 13.0235 139.697C13.4255 139.321 13.6329 138.841 13.6588 138.283C13.6718 138.076 13.6588 137.856 13.6329 137.622C13.607 137.389 13.5681 137.181 13.5292 136.987L10.5082 136.896L10.4304 138.893L7.11116 138.763Z" fill="#DCD6F7"/>
<path d="M10.8323 117.474C12.2067 117.681 13.3995 117.992 14.4108 118.42C15.4222 118.848 16.252 119.379 16.9002 120.028C17.5485 120.676 17.9894 121.428 18.2357 122.271C18.4821 123.127 18.5339 124.073 18.3654 125.123C18.2098 126.173 17.8856 127.068 17.3929 127.807C16.9002 128.546 16.252 129.143 15.461 129.583C14.6701 130.024 13.7107 130.297 12.6086 130.413C11.5065 130.53 10.2748 130.478 8.90042 130.284C7.07226 130.011 5.56824 129.545 4.38836 128.883C3.20848 128.222 2.35275 127.353 1.84709 126.303C1.34143 125.253 1.18584 124.021 1.39329 122.621C1.60074 121.221 2.09344 120.08 2.88434 119.224C3.66228 118.368 4.72547 117.798 6.06093 117.499C7.40936 117.214 8.99118 117.201 10.8323 117.474ZM9.5487 126.161C10.6637 126.329 11.6102 126.381 12.3752 126.316C13.1532 126.251 13.7496 126.083 14.1645 125.797C14.5923 125.512 14.8387 125.123 14.9035 124.618C14.9813 124.086 14.8646 123.632 14.5535 123.256C14.2423 122.867 13.7236 122.543 13.0105 122.284C12.2845 122.012 11.3639 121.791 10.21 121.623C8.48552 121.363 7.17598 121.363 6.29432 121.597C5.41265 121.843 4.90699 122.349 4.7903 123.127C4.7125 123.632 4.84216 124.086 5.1663 124.475C5.49044 124.877 6.02204 125.214 6.76108 125.499C7.50012 125.772 8.42069 125.992 9.5487 126.161Z" fill="#DCD6F7"/>
<path d="M14.0867 103.38C15.876 103.847 17.3281 104.521 18.4302 105.402C19.5323 106.284 20.2713 107.321 20.6603 108.54C21.0363 109.746 21.0363 111.094 20.6473 112.585L19.5323 116.825L3.41594 112.598L4.59582 108.086C4.97182 106.647 5.59417 105.506 6.44991 104.663C7.30564 103.821 8.38179 103.289 9.6654 103.069C10.949 102.835 12.4271 102.952 14.0867 103.38ZM13.1791 107.438C12.1029 107.153 11.2083 107.036 10.4822 107.062C9.75616 107.088 9.18567 107.27 8.77076 107.607C8.35586 107.944 8.07062 108.411 7.90206 109.033L7.74648 109.603L17.1855 112.08L17.2762 111.73C17.5485 110.692 17.354 109.837 16.6798 109.137C16.0056 108.436 14.8517 107.879 13.1791 107.438Z" fill="#DCD6F7"/>
<path d="M7.52606 97.8564L9.26346 93.2666C9.93768 91.4773 10.7545 90.2715 11.714 89.6362C12.6734 89.0139 13.8144 88.949 15.1369 89.4547C15.7204 89.6751 16.2131 89.9603 16.628 90.3234C17.0429 90.6864 17.3411 91.0754 17.5485 91.5033C17.743 91.9311 17.8338 92.372 17.8078 92.8128L17.9116 92.8517C18.2746 92.3849 18.6765 92.0478 19.1174 91.8274C19.5582 91.607 20.0509 91.5033 20.5955 91.5162C21.14 91.5292 21.7364 91.6589 22.3847 91.8922C23.3183 92.2423 24.0573 92.7609 24.5889 93.4222C25.1205 94.0834 25.4187 94.8743 25.5095 95.769C25.6002 96.6636 25.4317 97.649 25.0297 98.7122L23.1238 103.756L7.52606 97.8564ZM15.0073 96.3913L15.3314 95.5356C15.5129 95.0688 15.5129 94.6539 15.3314 94.3038C15.1499 93.9538 14.7998 93.6685 14.2812 93.474C13.8015 93.2925 13.3995 93.2796 13.0624 93.4481C12.7253 93.6167 12.466 93.9538 12.2715 94.4724L11.9733 95.2503L15.0073 96.3913ZM17.9116 97.4934L21.4382 98.8289L21.8142 97.8305C22.0087 97.3119 22.0087 96.8711 21.8142 96.508C21.6198 96.145 21.2178 95.8468 20.6214 95.6263C20.2454 95.4837 19.9213 95.4319 19.623 95.4448C19.3248 95.4708 19.0526 95.5745 18.8192 95.756C18.5858 95.9375 18.4043 96.2098 18.2746 96.5599L17.9116 97.4934Z" fill="#DCD6F7"/>
<path d="M29.2825 79.0303L26.2355 77.2021L29.4381 71.8473L32.485 73.6755L29.2825 79.0303Z" fill="#FED766"/>
</svg>
